<svg width="52" height="20" viewBox="0 0 52 20" fill="none" xmlns="http://www.w3.org/2000/svg">
<path d="M12.8906 11.0273C12.8906 13.332 12.3711 15.1094 11.332 16.3594C10.3008 17.6094 8.84375 18.2344 6.96094 18.2344C5.0625 18.2344 3.59375 17.6055 2.55469 16.3477C1.51562 15.0898 0.996094 13.3164 0.996094 11.0273V7.91016C0.996094 5.60547 1.51172 3.82813 2.54297 2.57812C3.58203 1.32812 5.04688 0.703125 6.9375 0.703125C8.82812 0.703125 10.293 1.33203 11.332 2.58984C12.3711 3.84766 12.8906 5.625 12.8906 7.92188V11.0273ZM8.94141 7.40625C8.94141 6.17969 8.78125 5.26562 8.46094 4.66406C8.14062 4.05469 7.63281 3.75 6.9375 3.75C6.25781 3.75 5.76172 4.03125 5.44922 4.59375C5.14453 5.15625 4.98047 6.00781 4.95703 7.14844V11.5078C4.95703 12.7812 5.11719 13.7148 5.4375 14.3086C5.75781 14.8945 6.26562 15.1875 6.96094 15.1875C7.63281 15.1875 8.12891 14.9023 8.44922 14.332C8.76953 13.7539 8.93359 12.8516 8.94141 11.625V7.40625ZM23.6953 18H19.7344V5.39062L15.8438 6.52734V3.52734L23.332 0.9375H23.6953V18ZM30.2578 19.4648H27.457L33.2812 0.9375H36.0938L30.2578 19.4648Z" fill="#333333"/>
<path d="M43.7539 13.9326C43.7539 15.277 43.4508 16.3138 42.8447 17.043C42.2432 17.7721 41.3932 18.1367 40.2949 18.1367C39.1875 18.1367 38.3307 17.7699 37.7246 17.0361C37.1185 16.3024 36.8154 15.2679 36.8154 13.9326V12.1143C36.8154 10.7699 37.1162 9.73307 37.7178 9.00391C38.3239 8.27474 39.1784 7.91016 40.2812 7.91016C41.3841 7.91016 42.2386 8.27702 42.8447 9.01074C43.4508 9.74447 43.7539 10.7812 43.7539 12.1211V13.9326ZM41.4502 11.8203C41.4502 11.1048 41.3568 10.5716 41.1699 10.2207C40.9831 9.86523 40.6868 9.6875 40.2812 9.6875C39.8848 9.6875 39.5954 9.85156 39.4131 10.1797C39.2354 10.5078 39.1396 11.0046 39.126 11.6699V14.2129C39.126 14.9557 39.2194 15.5003 39.4062 15.8467C39.5931 16.1885 39.8893 16.3594 40.2949 16.3594C40.6868 16.3594 40.9762 16.193 41.1631 15.8604C41.3499 15.5231 41.4456 14.9967 41.4502 14.2812V11.8203ZM51.6631 10.7061C51.6631 11.1891 51.5423 11.6152 51.3008 11.9844C51.0638 12.3535 50.7357 12.6497 50.3164 12.873C50.7904 13.1055 51.1663 13.4245 51.4443 13.8301C51.7223 14.2311 51.8613 14.7074 51.8613 15.2588C51.8613 16.1475 51.5537 16.8493 50.9385 17.3643C50.3278 17.8792 49.4847 18.1367 48.4092 18.1367C47.3291 18.1367 46.4769 17.8792 45.8525 17.3643C45.2282 16.8447 44.916 16.1429 44.916 15.2588C44.916 14.7256 45.0527 14.2539 45.3262 13.8438C45.5996 13.4336 45.987 13.11 46.4883 12.873C46.0645 12.6497 45.7318 12.3535 45.4902 11.9844C45.2487 11.6152 45.1279 11.1891 45.1279 10.7061C45.1279 9.84017 45.4219 9.15658 46.0098 8.65527C46.5977 8.15397 47.3906 7.90332 48.3887 7.90332C49.3958 7.90332 50.1934 8.15397 50.7812 8.65527C51.3691 9.15658 51.6631 9.84017 51.6631 10.7061ZM49.5508 15.0742C49.5508 14.6641 49.4437 14.3496 49.2295 14.1309C49.0199 13.9076 48.7419 13.7959 48.3955 13.7959C48.0492 13.7959 47.7689 13.9076 47.5547 14.1309C47.3405 14.3496 47.2334 14.6641 47.2334 15.0742C47.2334 15.4707 47.3405 15.7852 47.5547 16.0176C47.7734 16.2454 48.0583 16.3594 48.4092 16.3594C48.751 16.3594 49.0267 16.2454 49.2363 16.0176C49.446 15.7897 49.5508 15.4753 49.5508 15.0742ZM48.3887 9.68066C48.0788 9.68066 47.8418 9.7832 47.6777 9.98828C47.5182 10.1888 47.4385 10.4691 47.4385 10.8291C47.4385 11.1846 47.5205 11.4717 47.6846 11.6904C47.8486 11.9092 48.0902 12.0186 48.4092 12.0186C48.7236 12.0186 48.9583 11.9092 49.1133 11.6904C49.2728 11.4717 49.3525 11.1846 49.3525 10.8291C49.3525 10.4736 49.2705 10.1934 49.1064 9.98828C48.9469 9.7832 48.7077 9.68066 48.3887 9.68066Z" fill="#828282"/>
</svg>
